<svg width="3572" height="4785" viewBox="0 0 3572 4785" fill="none" xmlns="http://www.w3.org/2000/svg">
<g clip-path="url(#clip0_252_668)">
<path d="M2087.31 1604.94L2931.69 1425.7C2982.03 1422.77 3011.81 1479.85 2971.12 1513.85L2498.8 1887.44C2480.35 1902.14 2471.54 1918.51 2475.31 1942.85C2478.67 1964.26 2532.78 2025.13 2548.72 2048.63C2668.69 2226.61 2725.73 2432.72 2653.58 2642.6C2638.9 2685.84 2611.22 2711.86 2633.87 2758.45C2680.01 2852.48 2747.96 2936.85 2781.94 3040.12C2796.62 3084.19 2807.95 3123.65 2767.26 3157.23L2614.16 3254.62C2614.57 3182 2513.48 3261.33 2494.61 3237.41C2492.93 3235.31 2494.19 3234.05 2496.29 3232.37L2719.44 3099.3C2724.06 3090.07 2705.18 3044.31 2700.15 3032.14C2663.65 2942.73 2601.57 2865.07 2562.98 2781.54C2529 2708.08 2572.63 2660.65 2591.92 2593.49C2644.78 2409.63 2586.47 2229.97 2479.93 2078.86C2424.98 2000.78 2351.99 1937.82 2438.82 1840.85L2839.41 1521.83L2058.78 1687.64C2016.84 1695.19 1991.25 1672.94 1997.96 1630.13C2043.26 1497.9 2093.18 1367.36 2138.06 1235.13C2141.42 1225.06 2148.13 1212.04 2146.03 1201.55L1806.68 1615.02C1791.16 1629.71 1785.29 1642.3 1761.8 1643.98C1725.73 1646.5 1716.5 1633.49 1701.82 1604.52C1609.95 1421.09 1546.19 1208.69 1457.27 1022.31L1439.65 987.05L1535.71 1738.85C1535.71 1768.23 1536.97 1799.29 1532.35 1828.26C1530.67 1837.49 1531.51 1845.47 1519.77 1842.95C1518.51 1849.67 1529 1843.37 1529.42 1847.57C1529.42 1853.02 1520.19 1872.75 1518.09 1881.15C1500.05 1957.96 1492.08 2116.64 1507.6 2193.03C1516.83 2238.37 1555.84 2229.13 1594.85 2227.87C1685.04 2224.51 1736.21 2208.98 1807.52 2155.25C1874.64 2104.88 1936.72 2046.53 2003.41 1995.32C2014.32 1981.47 2014.74 1969.3 2010.96 1952.51C2006.77 1934.04 1975.73 1860.58 1965.66 1843.79C1948.46 1814.82 1936.72 1823.22 1911.55 1835.81C1852.4 1865.2 1795.36 1908.85 1735.79 1939.08C1730.34 1947.47 1771.03 1991.55 1772.29 2004.56L1713.56 2044.86C1687.14 1995.32 1614.57 1939.08 1678.33 1887.86C1740.83 1854.28 1801.23 1811.47 1863.73 1778.31C1916.58 1750.18 1967.34 1729.61 2013.06 1783.76C2031.1 1804.75 2083.53 1923.96 2086.47 1950.83C2091.92 1999.94 2072.62 2031.42 2038.65 2062.91C1978.24 2119.15 1823.04 2248.02 1751.31 2275.31C1693.85 2297.13 1542.84 2316.02 1488.73 2289.58C1444.26 2267.75 1434.2 2210.24 1430 2165.33C1424.13 2096.49 1426.23 2015.89 1433.36 1947.47C1440.49 1879.05 1466.08 1818.18 1462.3 1748.5L1340.66 804.872C1341.91 749.883 1406.93 731.414 1435.46 780.946C1536.97 1016.43 1631.35 1254.44 1733.28 1489.51C1736.63 1497.48 1758.44 1550.37 1761.8 1550.37L2182.94 1039.1C2216.08 994.606 2283.2 1023.15 2271.45 1079.4C2209.79 1254.44 2145.19 1428.64 2087.31 1604.94Z" fill="#FFFBD9"/>
<path d="M805.888 1842.13L1090.29 2270.29L674.595 2608.62L1132.65 2515.85L1148.59 2589.73L623.84 2694.67C566.792 2702.22 533.655 2640.52 570.148 2596.02L991.711 2257.69L708.152 1832.89C687.599 1787.56 726.189 1743.48 773.589 1754.4L1329.38 1938.67C1331.48 1941.61 1312.6 1999.54 1309.67 2002.9C1307.15 2006.25 1304.63 2006.67 1300.86 2005.42L805.049 1842.55L805.888 1842.13Z" fill="#FFFBD9"/>
<path d="M1359.95 3421.27C1358.28 3410.35 1346.11 3390.2 1342.34 3378.03C1334.37 3351.59 1336.88 3337.73 1333.95 3312.97C1325.14 3245.8 1279.84 3215.58 1263.06 3150.1C1255.93 3122.39 1255.51 3096.37 1251.31 3068.66C1140.15 3080 1031.51 3107.7 922.45 3131.21C867.5 3128.27 842.332 3069.08 880.084 3027.53L1252.99 2720.68C1258.86 2720.68 1292.84 2766.85 1299.13 2774.41L1297.87 2778.61L982.014 3041.38C1039.48 3030.47 1096.53 3016.61 1154.41 3006.96C1188.39 3001.5 1245.44 2988.91 1278.16 2993.53C1334.79 3001.5 1323.04 3064.05 1328.49 3103.5C1338.56 3178.64 1393.09 3213.06 1404.84 3283.58C1407.77 3301.21 1405.67 3325.56 1409.03 3343.61C1412.81 3364.18 1433.78 3395.66 1433.78 3414.97V3733.99H1359.95V3421.27Z" fill="#FFFBD9"/>
<path d="M2405.73 2522.13C2366.3 2517.94 2298.35 2516.26 2258.5 2518.36C2210.68 2520.88 2162.02 2531.79 2120.91 2556.97L2114.62 2562.43C2112.94 2565.37 2104.97 2572.51 2103.3 2597.27C2099.52 2656.04 2115.04 2732.02 2154.47 2776.93C2200.61 2829.4 2292.06 2848.71 2327.71 2775.25C2336.1 2775.25 2337.78 2784.49 2345.75 2790.78C2391.47 2826.88 2467.39 2779.03 2493.82 2737.89C2543.74 2658.14 2504.72 2533.05 2405.73 2522.55V2522.13ZM2273.18 2706.41C2273.18 2709.35 2268.57 2731.6 2266.89 2735.37C2260.18 2753.42 2246.33 2751.33 2231.23 2745.03C2187.19 2725.3 2176.28 2653.52 2176.7 2610.7C2206.48 2596.85 2240.46 2593.49 2272.76 2592.65V2706.41H2273.18ZM2413.7 2715.65C2393.15 2731.18 2388.95 2732.02 2375.95 2708.93C2357.91 2676.61 2354.98 2631.69 2349.52 2595.59H2402.38C2411.18 2595.59 2431.32 2618.26 2435.51 2626.66C2451.03 2659.4 2441.8 2694.24 2413.28 2715.65H2413.7Z" fill="#FFFBD9"/>
<path d="M1864.58 3512.78C1869.19 3513.62 1880.1 3522.44 1888.07 3524.54C2000.9 3557.7 2228.25 3542.59 2338.99 3499.77C2363.32 3490.54 2395.2 3473.75 2407.37 3449.4C2419.53 3425.05 2407.37 3417.92 2404.85 3394.83C2398.56 3339 2427.08 3302.48 2484.55 3303.74C2487.48 3306.26 2475.74 3367.13 2477 3377.2C2477 3379.3 2477 3377.2 2477.84 3379.72C2498.39 3444.78 2480.35 3495.15 2426.66 3535.87C2319.7 3616.05 2007.2 3632.84 1880.94 3598.42C1836.05 3586.24 1792.01 3564 1789.49 3511.95C1811.3 3514.88 1844.44 3507.75 1864.58 3511.95V3512.78Z" fill="#FFFBD9"/>
<path d="M1564.25 2545.22C1618.36 2538.5 1676.67 2550.67 1715.26 2591.39C1709.39 2598.11 1672.05 2642.6 1668.7 2643.44C1664.08 2644.28 1643.11 2627.49 1634.3 2624.13C1519.79 2580.9 1458.54 2718.16 1492.94 2810.51C1506.78 2848.29 1575.58 2883.55 1613.75 2877.25C1623.81 2875.57 1637.66 2864.24 1645.21 2866.34C1649.4 2867.6 1695.54 2908.31 1696.38 2911.67C1678.35 2935.18 1641.01 2950.29 1611.65 2951.55C1566.35 2953.65 1503.43 2928.04 1469.03 2898.66C1358.71 2804.63 1411.98 2564.53 1564.25 2545.22Z" fill="#FFFBD9"/>
<path d="M2307.15 3294.92L2324.35 3348.65C2231.23 3346.13 2122.16 3357.88 2052.11 3284L2084.41 3264.27C2097.42 3256.3 2113.77 3257.56 2126.36 3265.95C2182.15 3301.63 2239.2 3292.4 2306.73 3294.92H2307.15Z" fill="#FFFBD9"/>
<path d="M1911.16 3682.36C1910.33 3742.39 1912.84 3803.26 1927.1 3862.02L1855.38 3875.04C1839.44 3812.49 1836.92 3747.01 1837.34 3682.36H1911.16Z" fill="#FFFBD9"/>
<path d="M2518.53 3119.48L2530.7 3166.91C2497.56 3163.97 2470.29 3133.33 2438.83 3142.14C2433.8 3133.75 2405.7 3116.54 2409.05 3112.34L2478.26 3110.66L2518.53 3119.06V3119.48Z" fill="#FFFBD9"/>
</g>
<path d="M1786 64C2254.4 64 2683.44 318.183 2997.61 739.032C3311.78 1159.89 3508 1744.27 3508 2392.5C3508 3040.73 3311.78 3625.11 2997.61 4045.97C2683.44 4466.82 2254.4 4721 1786 4721C1317.6 4721 888.557 4466.82 574.394 4045.97C260.223 3625.11 64 3040.73 64 2392.5C64 1744.27 260.223 1159.89 574.394 739.032C888.557 318.183 1317.6 64 1786 64Z" stroke="#FFFBD9" stroke-width="128"/>
<defs>
<clipPath id="clip0_252_668">
<rect width="2435" height="3123.05" fill="white" transform="translate(555 752)"/>
</clipPath>
</defs>
</svg>
